# Blender v2.76 (sub 0) OBJ File: ''
# www.blender.org
mtllib saturnRings.mtl
o Circle
v 0.000000 0.000000 -1.050000
v -0.051521 0.000000 -1.048735
v -0.102918 0.000000 -1.044944
v -0.154067 0.000000 -1.038635
v -0.204845 0.000000 -1.029825
v -0.255129 0.000000 -1.018533
v -0.304799 0.000000 -1.004787
v -0.353734 0.000000 -0.988621
v -0.401818 0.000000 -0.970074
v -0.448933 0.000000 -0.949189
v -0.494967 0.000000 -0.926017
v -0.539808 0.000000 -0.900615
v -0.583349 0.000000 -0.873043
v -0.625484 0.000000 -0.843368
v -0.666113 0.000000 -0.811661
v -0.705137 0.000000 -0.777999
v -0.742462 0.000000 -0.742462
v -0.777999 0.000000 -0.705137
v -0.811661 0.000000 -0.666113
v -0.843368 0.000000 -0.625484
v -0.873043 0.000000 -0.583349
v -0.900615 0.000000 -0.539808
v -0.926017 0.000000 -0.494966
v -0.949189 0.000000 -0.448933
v -0.970074 0.000000 -0.401817
v -0.988621 0.000000 -0.353734
v -1.004787 0.000000 -0.304799
v -1.018533 0.000000 -0.255129
v -1.029825 0.000000 -0.204845
v -1.038635 0.000000 -0.154067
v -1.044944 0.000000 -0.102918
v -1.048735 0.000000 -0.051521
v -1.050000 0.000000 0.000000
v -1.048735 0.000000 0.051521
v -1.044944 0.000000 0.102918
v -1.038635 0.000000 0.154067
v -1.029824 0.000000 0.204845
v -1.018533 0.000000 0.255130
v -1.004787 0.000000 0.304799
v -0.988621 0.000000 0.353735
v -0.970073 0.000000 0.401818
v -0.949189 0.000000 0.448933
v -0.926017 0.000000 0.494967
v -0.900615 0.000000 0.539808
v -0.873043 0.000000 0.583349
v -0.843368 0.000000 0.625484
v -0.811661 0.000000 0.666113
v -0.777999 0.000000 0.705137
v -0.742462 0.000000 0.742462
v -0.705137 0.000000 0.777999
v -0.666113 0.000000 0.811661
v -0.625485 0.000000 0.843368
v -0.583349 0.000000 0.873043
v -0.539809 0.000000 0.900615
v -0.494967 0.000000 0.926017
v -0.448934 0.000000 0.949188
v -0.401819 0.000000 0.970073
v -0.353735 0.000000 0.988621
v -0.304800 0.000000 1.004787
v -0.255130 0.000000 1.018533
v -0.204846 0.000000 1.029824
v -0.154069 0.000000 1.038635
v -0.102920 0.000000 1.044944
v -0.051523 0.000000 1.048735
v -0.000002 0.000000 1.050000
v 0.051519 0.000000 1.048735
v 0.102916 0.000000 1.044944
v 0.154065 0.000000 1.038636
v 0.204843 0.000000 1.029825
v 0.255127 0.000000 1.018534
v 0.304797 0.000000 1.004788
v 0.353732 0.000000 0.988622
v 0.401815 0.000000 0.970075
v 0.448930 0.000000 0.949190
v 0.494964 0.000000 0.926019
v 0.539805 0.000000 0.900617
v 0.583346 0.000000 0.873045
v 0.625482 0.000000 0.843370
v 0.666110 0.000000 0.811663
v 0.705134 0.000000 0.778001
v 0.742460 0.000000 0.742465
v 0.777996 0.000000 0.705140
v 0.811659 0.000000 0.666116
v 0.843366 0.000000 0.625487
v 0.873041 0.000000 0.583351
v 0.900614 0.000000 0.539811
v 0.926016 0.000000 0.494969
v 0.949188 0.000000 0.448935
v 0.970073 0.000000 0.401820
v 0.988621 0.000000 0.353737
v 1.004787 0.000000 0.304801
v 1.018532 0.000000 0.255131
v 1.029824 0.000000 0.204847
v 1.038635 0.000000 0.154069
v 1.044944 0.000000 0.102920
v 1.048735 0.000000 0.051523
v 1.050000 0.000000 0.000001
v 1.048735 0.000000 -0.051520
v 1.044944 0.000000 -0.102917
v 1.038636 0.000000 -0.154066
v 1.029825 0.000000 -0.204844
v 1.018533 0.000000 -0.255129
v 1.004788 0.000000 -0.304798
v 0.988622 0.000000 -0.353734
v 0.970074 0.000000 -0.401817
v 0.949189 0.000000 -0.448933
v 0.926017 0.000000 -0.494967
v 0.900615 0.000000 -0.539808
v 0.873043 0.000000 -0.583349
v 0.843368 0.000000 -0.625485
v 0.811661 0.000000 -0.666113
v 0.777998 0.000000 -0.705138
v 0.742462 0.000000 -0.742463
v 0.705136 0.000000 -0.778000
v 0.666112 0.000000 -0.811662
v 0.625483 0.000000 -0.843369
v 0.583348 0.000000 -0.873044
v 0.539807 0.000000 -0.900616
v 0.494965 0.000000 -0.926018
v 0.448931 0.000000 -0.949190
v 0.401816 0.000000 -0.970074
v 0.353732 0.000000 -0.988622
v 0.304797 0.000000 -1.004788
v 0.255127 0.000000 -1.018534
v 0.204842 0.000000 -1.029825
v 0.154064 0.000000 -1.038636
v 0.102915 0.000000 -1.044944
v 0.051518 0.000000 -1.048735
v 0.000000 0.000000 -1.050000
v -0.051521 0.000000 -1.048735
v -0.102918 0.000000 -1.044944
v -0.154067 0.000000 -1.038635
v -0.204845 0.000000 -1.029825
v -0.255129 0.000000 -1.018533
v -0.304799 0.000000 -1.004787
v -0.353734 0.000000 -0.988621
v -0.401818 0.000000 -0.970074
v -0.448933 0.000000 -0.949189
v -0.494967 0.000000 -0.926017
v -0.539808 0.000000 -0.900615
v -0.583349 0.000000 -0.873043
v -0.625484 0.000000 -0.843368
v -0.666113 0.000000 -0.811661
v -0.705137 0.000000 -0.777999
v -0.742462 0.000000 -0.742462
v -0.777999 0.000000 -0.705137
v -0.811661 0.000000 -0.666113
v -0.843368 0.000000 -0.625484
v -0.873043 0.000000 -0.583349
v -0.900615 0.000000 -0.539808
v -0.926017 0.000000 -0.494966
v -0.949189 0.000000 -0.448933
v -0.970074 0.000000 -0.401817
v -0.988621 0.000000 -0.353734
v -1.004787 0.000000 -0.304799
v -1.018533 0.000000 -0.255129
v -1.029825 0.000000 -0.204845
v -1.038635 0.000000 -0.154067
v -1.044944 0.000000 -0.102918
v -1.048735 0.000000 -0.051521
v -1.050000 0.000000 0.000000
v -1.048735 0.000000 0.051521
v -1.044944 0.000000 0.102918
v -1.038635 0.000000 0.154067
v -1.029824 0.000000 0.204845
v -1.018533 0.000000 0.255130
v -1.004787 0.000000 0.304799
v -0.988621 0.000000 0.353735
v -0.970073 0.000000 0.401818
v -0.949189 0.000000 0.448933
v -0.926017 0.000000 0.494967
v -0.900615 0.000000 0.539808
v -0.873043 0.000000 0.583349
v -0.843368 0.000000 0.625484
v -0.811661 0.000000 0.666113
v -0.777999 0.000000 0.705137
v -0.742462 0.000000 0.742462
v -0.705137 0.000000 0.777999
v -0.666113 0.000000 0.811661
v -0.625485 0.000000 0.843368
v -0.583349 0.000000 0.873043
v -0.539809 0.000000 0.900615
v -0.494967 0.000000 0.926017
v -0.448934 0.000000 0.949188
v -0.401819 0.000000 0.970073
v -0.353735 0.000000 0.988621
v -0.304800 0.000000 1.004787
v -0.255130 0.000000 1.018533
v -0.204846 0.000000 1.029824
v -0.154069 0.000000 1.038635
v -0.102920 0.000000 1.044944
v -0.051523 0.000000 1.048735
v -0.000002 0.000000 1.050000
v 0.051519 0.000000 1.048735
v 0.102916 0.000000 1.044944
v 0.154065 0.000000 1.038636
v 0.204843 0.000000 1.029825
v 0.255127 0.000000 1.018534
v 0.304797 0.000000 1.004788
v 0.353732 0.000000 0.988622
v 0.401815 0.000000 0.970075
v 0.448930 0.000000 0.949190
v 0.494964 0.000000 0.926019
v 0.539805 0.000000 0.900617
v 0.583346 0.000000 0.873045
v 0.625482 0.000000 0.843370
v 0.666110 0.000000 0.811663
v 0.705134 0.000000 0.778001
v 0.742460 0.000000 0.742465
v 0.777996 0.000000 0.705140
v 0.811659 0.000000 0.666116
v 0.843366 0.000000 0.625487
v 0.873041 0.000000 0.583351
v 0.900614 0.000000 0.539811
v 0.926016 0.000000 0.494969
v 0.949188 0.000000 0.448935
v 0.970073 0.000000 0.401820
v 0.988621 0.000000 0.353737
v 1.004787 0.000000 0.304801
v 1.018532 0.000000 0.255131
v 1.029824 0.000000 0.204847
v 1.038635 0.000000 0.154069
v 1.044944 0.000000 0.102920
v 1.048735 0.000000 0.051523
v 1.050000 0.000000 0.000001
v 1.048735 0.000000 -0.051520
v 1.044944 0.000000 -0.102917
v 1.038636 0.000000 -0.154066
v 1.029825 0.000000 -0.204844
v 1.018533 0.000000 -0.255129
v 1.004788 0.000000 -0.304798
v 0.988622 0.000000 -0.353734
v 0.970074 0.000000 -0.401817
v 0.949189 0.000000 -0.448933
v 0.926017 0.000000 -0.494967
v 0.900615 0.000000 -0.539808
v 0.873043 0.000000 -0.583349
v 0.843368 0.000000 -0.625485
v 0.811661 0.000000 -0.666113
v 0.777998 0.000000 -0.705138
v 0.742462 0.000000 -0.742463
v 0.705136 0.000000 -0.778000
v 0.666112 0.000000 -0.811662
v 0.625483 0.000000 -0.843369
v 0.583348 0.000000 -0.873044
v 0.539807 0.000000 -0.900616
v 0.494965 0.000000 -0.926018
v 0.448931 0.000000 -0.949190
v 0.401816 0.000000 -0.970074
v 0.353732 0.000000 -0.988622
v 0.304797 0.000000 -1.004788
v 0.255127 0.000000 -1.018534
v 0.204842 0.000000 -1.029825
v 0.154064 0.000000 -1.038636
v 0.102915 0.000000 -1.044944
v 0.051518 0.000000 -1.048735
v 0.000000 0.000000 -2.052206
v -0.100697 0.000000 -2.049734
v -0.201151 0.000000 -2.042324
v -0.301121 0.000000 -2.029994
v -0.400365 0.000000 -2.012774
v -0.498645 0.000000 -1.990704
v -0.595724 0.000000 -1.963839
v -0.691367 0.000000 -1.932242
v -0.785345 0.000000 -1.895991
v -0.877431 0.000000 -1.855173
v -0.967403 0.000000 -1.809884
v -1.055045 0.000000 -1.760236
v -1.140144 0.000000 -1.706347
v -1.222498 0.000000 -1.648347
v -1.301906 0.000000 -1.586377
v -1.378177 0.000000 -1.520584
v -1.451129 0.000000 -1.451129
v -1.520584 0.000000 -1.378177
v -1.586377 0.000000 -1.301906
v -1.648347 0.000000 -1.222497
v -1.706347 0.000000 -1.140144
v -1.760236 0.000000 -1.055045
v -1.809884 0.000000 -0.967403
v -1.855173 0.000000 -0.877431
v -1.895991 0.000000 -0.785345
v -1.932243 0.000000 -0.691367
v -1.963839 0.000000 -0.595723
v -1.990704 0.000000 -0.498645
v -2.012774 0.000000 -0.400365
v -2.029994 0.000000 -0.301120
v -2.042324 0.000000 -0.201151
v -2.049734 0.000000 -0.100696
v -2.052206 0.000000 0.000001
v -2.049734 0.000000 0.100698
v -2.042324 0.000000 0.201152
v -2.029994 0.000000 0.301122
v -2.012773 0.000000 0.400367
v -1.990703 0.000000 0.498646
v -1.963839 0.000000 0.595725
v -1.932242 0.000000 0.691368
v -1.895991 0.000000 0.785346
v -1.855172 0.000000 0.877432
v -1.809884 0.000000 0.967404
v -1.760236 0.000000 1.055045
v -1.706347 0.000000 1.140145
v -1.648347 0.000000 1.222498
v -1.586377 0.000000 1.301906
v -1.520585 0.000000 1.378177
v -1.451129 0.000000 1.451128
v -1.378178 0.000000 1.520584
v -1.301906 0.000000 1.586376
v -1.222498 0.000000 1.648347
v -1.140146 0.000000 1.706346
v -1.055046 0.000000 1.760235
v -0.967405 0.000000 1.809883
v -0.877433 0.000000 1.855171
v -0.785347 0.000000 1.895990
v -0.691369 0.000000 1.932241
v -0.595726 0.000000 1.963838
v -0.498648 0.000000 1.990703
v -0.400368 0.000000 2.012773
v -0.301124 0.000000 2.029994
v -0.201155 0.000000 2.042324
v -0.100700 0.000000 2.049734
v -0.000004 0.000000 2.052206
v 0.100693 0.000000 2.049734
v 0.201147 0.000000 2.042325
v 0.301117 0.000000 2.029994
v 0.400361 0.000000 2.012774
v 0.498641 0.000000 1.990705
v 0.595719 0.000000 1.963840
v 0.691363 0.000000 1.932244
v 0.785340 0.000000 1.895993
v 0.877426 0.000000 1.855175
v 0.967398 0.000000 1.809887
v 1.055040 0.000000 1.760239
v 1.140140 0.000000 1.706350
v 1.222493 0.000000 1.648351
v 1.301901 0.000000 1.586381
v 1.378172 0.000000 1.520589
v 1.451124 0.000000 1.451134
v 1.520580 0.000000 1.378183
v 1.586372 0.000000 1.301911
v 1.648343 0.000000 1.222503
v 1.706344 0.000000 1.140150
v 1.760233 0.000000 1.055050
v 1.809882 0.000000 0.967408
v 1.855170 0.000000 0.877436
v 1.895989 0.000000 0.785350
v 1.932241 0.000000 0.691372
v 1.963838 0.000000 0.595728
v 1.990703 0.000000 0.498650
v 2.012773 0.000000 0.400369
v 2.029994 0.000000 0.301125
v 2.042324 0.000000 0.201155
v 2.049734 0.000000 0.100700
v 2.052206 0.000000 0.000003
v 2.049734 0.000000 -0.100694
v 2.042325 0.000000 -0.201149
v 2.029994 0.000000 -0.301119
v 2.012774 0.000000 -0.400364
v 1.990705 0.000000 -0.498644
v 1.963839 0.000000 -0.595723
v 1.932243 0.000000 -0.691367
v 1.895991 0.000000 -0.785345
v 1.855173 0.000000 -0.877431
v 1.809884 0.000000 -0.967403
v 1.760236 0.000000 -1.055045
v 1.706347 0.000000 -1.140145
v 1.648347 0.000000 -1.222498
v 1.586376 0.000000 -1.301906
v 1.520584 0.000000 -1.378178
v 1.451128 0.000000 -1.451130
v 1.378176 0.000000 -1.520586
v 1.301904 0.000000 -1.586378
v 1.222496 0.000000 -1.648349
v 1.140142 0.000000 -1.706349
v 1.055042 0.000000 -1.760238
v 0.967400 0.000000 -1.809886
v 0.877428 0.000000 -1.855174
v 0.785342 0.000000 -1.895993
v 0.691364 0.000000 -1.932244
v 0.595720 0.000000 -1.963840
v 0.498641 0.000000 -1.990705
v 0.400361 0.000000 -2.012774
v 0.301116 0.000000 -2.029995
v 0.201146 0.000000 -2.042325
v 0.100691 0.000000 -2.049734
vt 0.000000 0.999999
vt 0.000000 -0.000001
vt 1.000000 0.000001
vt 0.999999 1.000001
vn 0.000000 0.000000 1.000000
vn 0.000000 1.000000 0.000000
usemtl None
s off
f 45/1/1 44/2/1 172/3/1 173/4/1
f 97/1/1 96/2/1 224/3/1 225/4/1
f 46/1/1 45/2/1 173/3/1 174/4/1
f 98/1/1 97/2/1 225/3/1 226/4/1
f 47/1/1 46/2/1 174/3/1 175/4/1
f 99/1/1 98/2/1 226/3/1 227/4/1
f 48/1/1 47/2/1 175/3/1 176/4/1
f 100/1/1 99/2/1 227/3/1 228/4/1
f 49/1/1 48/2/1 176/3/1 177/4/1
f 101/1/1 100/2/1 228/3/1 229/4/1
f 50/1/1 49/2/1 177/3/1 178/4/1
f 102/1/1 101/2/1 229/3/1 230/4/1
f 51/1/1 50/2/1 178/3/1 179/4/1
f 103/1/1 102/2/1 230/3/1 231/4/1
f 52/1/1 51/2/1 179/3/1 180/4/1
f 104/1/1 103/2/1 231/3/1 232/4/1
f 53/1/1 52/2/1 180/3/1 181/4/1
f 2/1/1 1/2/1 129/3/1 130/4/1
f 105/1/1 104/2/1 232/3/1 233/4/1
f 54/1/1 53/2/1 181/3/1 182/4/1
f 3/1/1 2/2/1 130/3/1 131/4/1
f 106/1/1 105/2/1 233/3/1 234/4/1
f 55/1/1 54/2/1 182/3/1 183/4/1
f 4/1/1 3/2/1 131/3/1 132/4/1
f 107/1/1 106/2/1 234/3/1 235/4/1
f 56/1/1 55/2/1 183/3/1 184/4/1
f 5/1/1 4/2/1 132/3/1 133/4/1
f 108/1/1 107/2/1 235/3/1 236/4/1
f 57/1/1 56/2/1 184/3/1 185/4/1
f 6/1/1 5/2/1 133/3/1 134/4/1
f 109/1/1 108/2/1 236/3/1 237/4/1
f 58/1/1 57/2/1 185/3/1 186/4/1
f 7/1/1 6/2/1 134/3/1 135/4/1
f 110/1/1 109/2/1 237/3/1 238/4/1
f 59/1/1 58/2/1 186/3/1 187/4/1
f 8/1/1 7/2/1 135/3/1 136/4/1
f 111/1/1 110/2/1 238/3/1 239/4/1
f 60/1/1 59/2/1 187/3/1 188/4/1
f 9/1/1 8/2/1 136/3/1 137/4/1
f 112/1/1 111/2/1 239/3/1 240/4/1
f 61/1/1 60/2/1 188/3/1 189/4/1
f 10/1/1 9/2/1 137/3/1 138/4/1
f 113/1/1 112/2/1 240/3/1 241/4/1
f 62/1/1 61/2/1 189/3/1 190/4/1
f 11/1/1 10/2/1 138/3/1 139/4/1
f 114/1/1 113/2/1 241/3/1 242/4/1
f 63/1/1 62/2/1 190/3/1 191/4/1
f 12/1/1 11/2/1 139/3/1 140/4/1
f 115/1/1 114/2/1 242/3/1 243/4/1
f 64/1/1 63/2/1 191/3/1 192/4/1
f 13/1/1 12/2/1 140/3/1 141/4/1
f 116/1/1 115/2/1 243/3/1 244/4/1
f 65/1/1 64/2/1 192/3/1 193/4/1
f 14/1/1 13/2/1 141/3/1 142/4/1
f 117/1/1 116/2/1 244/3/1 245/4/1
f 66/1/1 65/2/1 193/3/1 194/4/1
f 15/1/1 14/2/1 142/3/1 143/4/1
f 118/1/1 117/2/1 245/3/1 246/4/1
f 67/1/1 66/2/1 194/3/1 195/4/1
f 16/1/1 15/2/1 143/3/1 144/4/1
f 119/1/1 118/2/1 246/3/1 247/4/1
f 68/1/1 67/2/1 195/3/1 196/4/1
f 17/1/1 16/2/1 144/3/1 145/4/1
f 120/1/1 119/2/1 247/3/1 248/4/1
f 69/1/1 68/2/1 196/3/1 197/4/1
f 18/1/1 17/2/1 145/3/1 146/4/1
f 121/1/1 120/2/1 248/3/1 249/4/1
f 70/1/1 69/2/1 197/3/1 198/4/1
f 19/1/1 18/2/1 146/3/1 147/4/1
f 122/1/1 121/2/1 249/3/1 250/4/1
f 71/1/1 70/2/1 198/3/1 199/4/1
f 20/1/1 19/2/1 147/3/1 148/4/1
f 123/1/1 122/2/1 250/3/1 251/4/1
f 72/1/1 71/2/1 199/3/1 200/4/1
f 21/1/1 20/2/1 148/3/1 149/4/1
f 124/1/1 123/2/1 251/3/1 252/4/1
f 73/1/1 72/2/1 200/3/1 201/4/1
f 22/1/1 21/2/1 149/3/1 150/4/1
f 125/1/1 124/2/1 252/3/1 253/4/1
f 74/1/1 73/2/1 201/3/1 202/4/1
f 23/1/1 22/2/1 150/3/1 151/4/1
f 126/1/1 125/2/1 253/3/1 254/4/1
f 75/1/1 74/2/1 202/3/1 203/4/1
f 24/1/1 23/2/1 151/3/1 152/4/1
f 127/1/1 126/2/1 254/3/1 255/4/1
f 76/1/1 75/2/1 203/3/1 204/4/1
f 25/1/1 24/2/1 152/3/1 153/4/1
f 128/1/1 127/2/1 255/3/1 256/4/1
f 77/1/1 76/2/1 204/3/1 205/4/1
f 26/1/1 25/2/1 153/3/1 154/4/1
f 1/1/1 128/2/1 256/3/1 129/4/1
f 78/1/1 77/2/1 205/3/1 206/4/1
f 27/1/1 26/2/1 154/3/1 155/4/1
f 79/1/1 78/2/1 206/3/1 207/4/1
f 28/1/1 27/2/1 155/3/1 156/4/1
f 80/1/1 79/2/1 207/3/1 208/4/1
f 29/1/1 28/2/1 156/3/1 157/4/1
f 81/1/1 80/2/1 208/3/1 209/4/1
f 30/1/1 29/2/1 157/3/1 158/4/1
f 82/1/1 81/2/1 209/3/1 210/4/1
f 31/1/1 30/2/1 158/3/1 159/4/1
f 83/1/1 82/2/1 210/3/1 211/4/1
f 32/1/1 31/2/1 159/3/1 160/4/1
f 84/1/1 83/2/1 211/3/1 212/4/1
f 33/1/1 32/2/1 160/3/1 161/4/1
f 85/1/1 84/2/1 212/3/1 213/4/1
f 34/1/1 33/2/1 161/3/1 162/4/1
f 86/1/1 85/2/1 213/3/1 214/4/1
f 35/1/1 34/2/1 162/3/1 163/4/1
f 87/1/1 86/2/1 214/3/1 215/4/1
f 36/1/1 35/2/1 163/3/1 164/4/1
f 88/1/1 87/2/1 215/3/1 216/4/1
f 37/1/1 36/2/1 164/3/1 165/4/1
f 89/1/1 88/2/1 216/3/1 217/4/1
f 38/1/1 37/2/1 165/3/1 166/4/1
f 90/1/1 89/2/1 217/3/1 218/4/1
f 39/1/1 38/2/1 166/3/1 167/4/1
f 91/1/1 90/2/1 218/3/1 219/4/1
f 40/1/1 39/2/1 167/3/1 168/4/1
f 92/1/1 91/2/1 219/3/1 220/4/1
f 41/1/1 40/2/1 168/3/1 169/4/1
f 93/1/1 92/2/1 220/3/1 221/4/1
f 42/1/1 41/2/1 169/3/1 170/4/1
f 94/1/1 93/2/1 221/3/1 222/4/1
f 43/1/1 42/2/1 170/3/1 171/4/1
f 95/1/1 94/2/1 222/3/1 223/4/1
f 44/1/1 43/2/1 171/3/1 172/4/1
f 96/1/1 95/2/1 223/3/1 224/4/1
f 199/1/2 198/2/2 326/3/2 327/4/2
f 148/1/2 147/2/2 275/3/2 276/4/2
f 251/1/2 250/2/2 378/3/2 379/4/2
f 200/1/2 199/2/2 327/3/2 328/4/2
f 149/1/2 148/2/2 276/3/2 277/4/2
f 252/1/2 251/2/2 379/3/2 380/4/2
f 201/1/2 200/2/2 328/3/2 329/4/2
f 150/1/2 149/2/2 277/3/2 278/4/2
f 253/1/2 252/2/2 380/3/2 381/4/2
f 202/1/2 201/2/2 329/3/2 330/4/2
f 151/1/2 150/2/2 278/3/2 279/4/2
f 254/1/2 253/2/2 381/3/2 382/4/2
f 203/1/2 202/2/2 330/3/2 331/4/2
f 152/1/2 151/2/2 279/3/2 280/4/2
f 255/1/2 254/2/2 382/3/2 383/4/2
f 204/1/2 203/2/2 331/3/2 332/4/2
f 153/1/2 152/2/2 280/3/2 281/4/2
f 256/1/2 255/2/2 383/3/2 384/4/2
f 205/1/2 204/2/2 332/3/2 333/4/2
f 154/1/2 153/2/2 281/3/2 282/4/2
f 129/1/2 256/2/2 384/3/2 257/4/2
f 206/1/2 205/2/2 333/3/2 334/4/2
f 155/1/2 154/2/2 282/3/2 283/4/2
f 207/1/2 206/2/2 334/3/2 335/4/2
f 156/1/2 155/2/2 283/3/2 284/4/2
f 208/1/2 207/2/2 335/3/2 336/4/2
f 157/1/2 156/2/2 284/3/2 285/4/2
f 209/1/2 208/2/2 336/3/2 337/4/2
f 158/1/2 157/2/2 285/3/2 286/4/2
f 210/1/2 209/2/2 337/3/2 338/4/2
f 159/1/2 158/2/2 286/3/2 287/4/2
f 211/1/2 210/2/2 338/3/2 339/4/2
f 160/1/2 159/2/2 287/3/2 288/4/2
f 212/1/2 211/2/2 339/3/2 340/4/2
f 161/1/2 160/2/2 288/3/2 289/4/2
f 213/1/2 212/2/2 340/3/2 341/4/2
f 162/1/2 161/2/2 289/3/2 290/4/2
f 214/1/2 213/2/2 341/3/2 342/4/2
f 163/1/2 162/2/2 290/3/2 291/4/2
f 215/1/2 214/2/2 342/3/2 343/4/2
f 164/1/2 163/2/2 291/3/2 292/4/2
f 216/1/2 215/2/2 343/3/2 344/4/2
f 165/1/2 164/2/2 292/3/2 293/4/2
f 217/1/2 216/2/2 344/3/2 345/4/2
f 166/1/2 165/2/2 293/3/2 294/4/2
f 218/1/2 217/2/2 345/3/2 346/4/2
f 167/1/2 166/2/2 294/3/2 295/4/2
f 219/1/2 218/2/2 346/3/2 347/4/2
f 168/1/2 167/2/2 295/3/2 296/4/2
f 220/1/2 219/2/2 347/3/2 348/4/2
f 169/1/2 168/2/2 296/3/2 297/4/2
f 221/1/2 220/2/2 348/3/2 349/4/2
f 170/1/2 169/2/2 297/3/2 298/4/2
f 222/1/2 221/2/2 349/3/2 350/4/2
f 171/1/2 170/2/2 298/3/2 299/4/2
f 223/1/2 222/2/2 350/3/2 351/4/2
f 172/1/2 171/2/2 299/3/2 300/4/2
f 224/1/2 223/2/2 351/3/2 352/4/2
f 173/1/2 172/2/2 300/3/2 301/4/2
f 225/1/2 224/2/2 352/3/2 353/4/2
f 174/1/2 173/2/2 301/3/2 302/4/2
f 226/1/2 225/2/2 353/3/2 354/4/2
f 175/1/2 174/2/2 302/3/2 303/4/2
f 227/1/2 226/2/2 354/3/2 355/4/2
f 176/1/2 175/2/2 303/3/2 304/4/2
f 228/1/2 227/2/2 355/3/2 356/4/2
f 177/1/2 176/2/2 304/3/2 305/4/2
f 229/1/2 228/2/2 356/3/2 357/4/2
f 178/1/2 177/2/2 305/3/2 306/4/2
f 230/1/2 229/2/2 357/3/2 358/4/2
f 179/1/2 178/2/2 306/3/2 307/4/2
f 231/1/2 230/2/2 358/3/2 359/4/2
f 180/1/2 179/2/2 307/3/2 308/4/2
f 232/1/2 231/2/2 359/3/2 360/4/2
f 181/1/2 180/2/2 308/3/2 309/4/2
f 130/1/2 129/2/2 257/3/2 258/4/2
f 233/1/2 232/2/2 360/3/2 361/4/2
f 182/1/2 181/2/2 309/3/2 310/4/2
f 131/1/2 130/2/2 258/3/2 259/4/2
f 234/1/2 233/2/2 361/3/2 362/4/2
f 183/1/2 182/2/2 310/3/2 311/4/2
f 132/1/2 131/2/2 259/3/2 260/4/2
f 235/1/2 234/2/2 362/3/2 363/4/2
f 184/1/2 183/2/2 311/3/2 312/4/2
f 133/1/2 132/2/2 260/3/2 261/4/2
f 236/1/2 235/2/2 363/3/2 364/4/2
f 185/1/2 184/2/2 312/3/2 313/4/2
f 134/1/2 133/2/2 261/3/2 262/4/2
f 237/1/2 236/2/2 364/3/2 365/4/2
f 186/1/2 185/2/2 313/3/2 314/4/2
f 135/1/2 134/2/2 262/3/2 263/4/2
f 238/1/2 237/2/2 365/3/2 366/4/2
f 187/1/2 186/2/2 314/3/2 315/4/2
f 136/1/2 135/2/2 263/3/2 264/4/2
f 239/1/2 238/2/2 366/3/2 367/4/2
f 188/1/2 187/2/2 315/3/2 316/4/2
f 137/1/2 136/2/2 264/3/2 265/4/2
f 240/1/2 239/2/2 367/3/2 368/4/2
f 189/1/2 188/2/2 316/3/2 317/4/2
f 138/1/2 137/2/2 265/3/2 266/4/2
f 241/1/2 240/2/2 368/3/2 369/4/2
f 190/1/2 189/2/2 317/3/2 318/4/2
f 139/1/2 138/2/2 266/3/2 267/4/2
f 242/1/2 241/2/2 369/3/2 370/4/2
f 191/1/2 190/2/2 318/3/2 319/4/2
f 140/1/2 139/2/2 267/3/2 268/4/2
f 243/1/2 242/2/2 370/3/2 371/4/2
f 192/1/2 191/2/2 319/3/2 320/4/2
f 141/1/2 140/2/2 268/3/2 269/4/2
f 244/1/2 243/2/2 371/3/2 372/4/2
f 193/1/2 192/2/2 320/3/2 321/4/2
f 142/1/2 141/2/2 269/3/2 270/4/2
f 245/1/2 244/2/2 372/3/2 373/4/2
f 194/1/2 193/2/2 321/3/2 322/4/2
f 143/1/2 142/2/2 270/3/2 271/4/2
f 246/1/2 245/2/2 373/3/2 374/4/2
f 195/1/2 194/2/2 322/3/2 323/4/2
f 144/1/2 143/2/2 271/3/2 272/4/2
f 247/1/2 246/2/2 374/3/2 375/4/2
f 196/1/2 195/2/2 323/3/2 324/4/2
f 145/1/2 144/2/2 272/3/2 273/4/2
f 248/1/2 247/2/2 375/3/2 376/4/2
f 197/1/2 196/2/2 324/3/2 325/4/2
f 146/1/2 145/2/2 273/3/2 274/4/2
f 249/1/2 248/2/2 376/3/2 377/4/2
f 198/1/2 197/2/2 325/3/2 326/4/2
f 147/1/2 146/2/2 274/3/2 275/4/2
f 250/1/2 249/2/2 377/3/2 378/4/2
