# Blender v2.76 (sub 0) OBJ File: 'uranusRings.blend'
# www.blender.org
mtllib uranusRings.mtl
o Circle
v 0.000000 0.000000 -1.306250
v -0.064095 0.000000 -1.304677
v -0.128035 0.000000 -1.299960
v -0.191667 0.000000 -1.292112
v -0.254837 0.000000 -1.281151
v -0.317393 0.000000 -1.267103
v -0.379184 0.000000 -1.250003
v -0.440062 0.000000 -1.229892
v -0.499880 0.000000 -1.206818
v -0.558494 0.000000 -1.180836
v -0.615762 0.000000 -1.152010
v -0.671547 0.000000 -1.120408
v -0.725714 0.000000 -1.086107
v -0.778132 0.000000 -1.049190
v -0.828676 0.000000 -1.009745
v -0.877224 0.000000 -0.967867
v -0.923658 0.000000 -0.923658
v -0.967867 0.000000 -0.877224
v -1.009745 0.000000 -0.828676
v -1.049190 0.000000 -0.778132
v -1.086107 0.000000 -0.725713
v -1.120408 0.000000 -0.671547
v -1.152010 0.000000 -0.615762
v -1.180836 0.000000 -0.558494
v -1.206818 0.000000 -0.499880
v -1.229892 0.000000 -0.440062
v -1.250003 0.000000 -0.379184
v -1.267103 0.000000 -0.317392
v -1.281151 0.000000 -0.254836
v -1.292112 0.000000 -0.191666
v -1.299960 0.000000 -0.128034
v -1.304677 0.000000 -0.064094
v -1.306250 0.000000 0.000000
v -1.304677 0.000000 0.064095
v -1.299960 0.000000 0.128035
v -1.292112 0.000000 0.191667
v -1.281151 0.000000 0.254837
v -1.267103 0.000000 0.317393
v -1.250003 0.000000 0.379185
v -1.229892 0.000000 0.440063
v -1.206817 0.000000 0.499881
v -1.180836 0.000000 0.558494
v -1.152009 0.000000 0.615762
v -1.120408 0.000000 0.671547
v -1.086107 0.000000 0.725714
v -1.049190 0.000000 0.778132
v -1.009745 0.000000 0.828676
v -0.967868 0.000000 0.877224
v -0.923658 0.000000 0.923658
v -0.877224 0.000000 0.967867
v -0.828677 0.000000 1.009745
v -0.778133 0.000000 1.049189
v -0.725714 0.000000 1.086107
v -0.671547 0.000000 1.120408
v -0.615763 0.000000 1.152009
v -0.558495 0.000000 1.180835
v -0.499881 0.000000 1.206817
v -0.440064 0.000000 1.229892
v -0.379186 0.000000 1.250003
v -0.317394 0.000000 1.267103
v -0.254838 0.000000 1.281150
v -0.191669 0.000000 1.292112
v -0.128037 0.000000 1.299960
v -0.064097 0.000000 1.304677
v -0.000002 0.000000 1.306250
v 0.064092 0.000000 1.304677
v 0.128032 0.000000 1.299960
v 0.191664 0.000000 1.292112
v 0.254834 0.000000 1.281151
v 0.317390 0.000000 1.267104
v 0.379181 0.000000 1.250004
v 0.440059 0.000000 1.229893
v 0.499877 0.000000 1.206819
v 0.558491 0.000000 1.180838
v 0.615759 0.000000 1.152011
v 0.671544 0.000000 1.120410
v 0.725710 0.000000 1.086109
v 0.778129 0.000000 1.049192
v 0.828673 0.000000 1.009748
v 0.877221 0.000000 0.967870
v 0.923655 0.000000 0.923661
v 0.967864 0.000000 0.877227
v 1.009742 0.000000 0.828680
v 1.049187 0.000000 0.778136
v 1.086105 0.000000 0.725717
v 1.120406 0.000000 0.671550
v 1.152008 0.000000 0.615765
v 1.180835 0.000000 0.558497
v 1.206816 0.000000 0.499883
v 1.229891 0.000000 0.440065
v 1.250003 0.000000 0.379187
v 1.267103 0.000000 0.317396
v 1.281150 0.000000 0.254839
v 1.292112 0.000000 0.191669
v 1.299960 0.000000 0.128037
v 1.304677 0.000000 0.064097
v 1.306250 0.000000 0.000002
v 1.304677 0.000000 -0.064093
v 1.299960 0.000000 -0.128033
v 1.292112 0.000000 -0.191665
v 1.281151 0.000000 -0.254836
v 1.267104 0.000000 -0.317392
v 1.250004 0.000000 -0.379184
v 1.229892 0.000000 -0.440062
v 1.206818 0.000000 -0.499880
v 1.180836 0.000000 -0.558494
v 1.152010 0.000000 -0.615762
v 1.120408 0.000000 -0.671547
v 1.086107 0.000000 -0.725714
v 1.049190 0.000000 -0.778133
v 1.009745 0.000000 -0.828677
v 0.967867 0.000000 -0.877225
v 0.923658 0.000000 -0.923659
v 0.877223 0.000000 -0.967868
v 0.828675 0.000000 -1.009746
v 0.778131 0.000000 -1.049191
v 0.725712 0.000000 -1.086108
v 0.671545 0.000000 -1.120409
v 0.615760 0.000000 -1.152011
v 0.558492 0.000000 -1.180837
v 0.499878 0.000000 -1.206819
v 0.440060 0.000000 -1.229893
v 0.379182 0.000000 -1.250004
v 0.317390 0.000000 -1.267104
v 0.254834 0.000000 -1.281152
v 0.191663 0.000000 -1.292112
v 0.128031 0.000000 -1.299961
v 0.064091 0.000000 -1.304677
v 0.000000 0.000000 -1.951396
v -0.095750 0.000000 -1.949046
v -0.191270 0.000000 -1.942000
v -0.286329 0.000000 -1.930276
v -0.380698 0.000000 -1.913901
v -0.474151 0.000000 -1.892915
v -0.566460 0.000000 -1.867370
v -0.657406 0.000000 -1.837326
v -0.746767 0.000000 -1.802855
v -0.834329 0.000000 -1.764041
v -0.919882 0.000000 -1.720978
v -1.003218 0.000000 -1.673769
v -1.084138 0.000000 -1.622527
v -1.162445 0.000000 -1.567376
v -1.237953 0.000000 -1.508450
v -1.310478 0.000000 -1.445889
v -1.379845 0.000000 -1.379845
v -1.445889 0.000000 -1.310477
v -1.508450 0.000000 -1.237953
v -1.567376 0.000000 -1.162445
v -1.622527 0.000000 -1.084138
v -1.673769 0.000000 -1.003218
v -1.720978 0.000000 -0.919882
v -1.764041 0.000000 -0.834329
v -1.802855 0.000000 -0.746767
v -1.837326 0.000000 -0.657405
v -1.867370 0.000000 -0.566460
v -1.892915 0.000000 -0.474150
v -1.913901 0.000000 -0.380698
v -1.930276 0.000000 -0.286329
v -1.942000 0.000000 -0.191270
v -1.949046 0.000000 -0.095750
v -1.951396 0.000000 0.000001
v -1.949046 0.000000 0.095751
v -1.942000 0.000000 0.191271
v -1.930275 0.000000 0.286330
v -1.913900 0.000000 0.380699
v -1.892915 0.000000 0.474151
v -1.867370 0.000000 0.566461
v -1.837325 0.000000 0.657407
v -1.802855 0.000000 0.746768
v -1.764041 0.000000 0.834330
v -1.720978 0.000000 0.919882
v -1.673768 0.000000 1.003219
v -1.622527 0.000000 1.084138
v -1.567376 0.000000 1.162446
v -1.508450 0.000000 1.237953
v -1.445889 0.000000 1.310477
v -1.379846 0.000000 1.379845
v -1.310478 0.000000 1.445889
v -1.237953 0.000000 1.508449
v -1.162446 0.000000 1.567376
v -1.084139 0.000000 1.622526
v -1.003219 0.000000 1.673768
v -0.919883 0.000000 1.720977
v -0.834331 0.000000 1.764041
v -0.746769 0.000000 1.802854
v -0.657408 0.000000 1.837325
v -0.566463 0.000000 1.867369
v -0.474153 0.000000 1.892915
v -0.380701 0.000000 1.913900
v -0.286332 0.000000 1.930275
v -0.191273 0.000000 1.941999
v -0.095754 0.000000 1.949046
v -0.000003 0.000000 1.951396
v 0.095747 0.000000 1.949046
v 0.191266 0.000000 1.942000
v 0.286325 0.000000 1.930276
v 0.380694 0.000000 1.913902
v 0.474146 0.000000 1.892916
v 0.566456 0.000000 1.867371
v 0.657401 0.000000 1.837327
v 0.746762 0.000000 1.802857
v 0.834325 0.000000 1.764044
v 0.919877 0.000000 1.720980
v 1.003214 0.000000 1.673771
v 1.084133 0.000000 1.622530
v 1.162441 0.000000 1.567380
v 1.237948 0.000000 1.508454
v 1.310473 0.000000 1.445894
v 1.379841 0.000000 1.379850
v 1.445885 0.000000 1.310483
v 1.508446 0.000000 1.237958
v 1.567373 0.000000 1.162450
v 1.622524 0.000000 1.084143
v 1.673766 0.000000 1.003223
v 1.720975 0.000000 0.919887
v 1.764039 0.000000 0.834334
v 1.802853 0.000000 0.746772
v 1.837324 0.000000 0.657410
v 1.867369 0.000000 0.566465
v 1.892915 0.000000 0.474155
v 1.913900 0.000000 0.380702
v 1.930275 0.000000 0.286333
v 1.942000 0.000000 0.191274
v 1.949046 0.000000 0.095753
v 1.951396 0.000000 0.000003
v 1.949046 0.000000 -0.095748
v 1.942000 0.000000 -0.191268
v 1.930276 0.000000 -0.286327
v 1.913901 0.000000 -0.380697
v 1.892916 0.000000 -0.474149
v 1.867370 0.000000 -0.566459
v 1.837326 0.000000 -0.657405
v 1.802855 0.000000 -0.746766
v 1.764041 0.000000 -0.834329
v 1.720978 0.000000 -0.919882
v 1.673768 0.000000 -1.003218
v 1.622527 0.000000 -1.084138
v 1.567376 0.000000 -1.162446
v 1.508449 0.000000 -1.237953
v 1.445889 0.000000 -1.310479
v 1.379845 0.000000 -1.379847
v 1.310476 0.000000 -1.445891
v 1.237951 0.000000 -1.508451
v 1.162444 0.000000 -1.567378
v 1.084136 0.000000 -1.622528
v 1.003216 0.000000 -1.673770
v 0.919879 0.000000 -1.720980
v 0.834326 0.000000 -1.764043
v 0.746764 0.000000 -1.802857
v 0.657402 0.000000 -1.837327
v 0.566456 0.000000 -1.867371
v 0.474146 0.000000 -1.892916
v 0.380694 0.000000 -1.913902
v 0.286324 0.000000 -1.930276
v 0.191265 0.000000 -1.942000
v 0.095745 0.000000 -1.949046
vt 0.000000 0.999999
vt 0.000000 -0.000001
vt 1.000000 0.000001
vt 0.999999 1.000001
vn 0.000000 1.000000 0.000000
usemtl None
s off
f 71/1/1 70/2/1 198/3/1 199/4/1
f 20/1/1 19/2/1 147/3/1 148/4/1
f 123/1/1 122/2/1 250/3/1 251/4/1
f 72/1/1 71/2/1 199/3/1 200/4/1
f 21/1/1 20/2/1 148/3/1 149/4/1
f 124/1/1 123/2/1 251/3/1 252/4/1
f 73/1/1 72/2/1 200/3/1 201/4/1
f 22/1/1 21/2/1 149/3/1 150/4/1
f 125/1/1 124/2/1 252/3/1 253/4/1
f 74/1/1 73/2/1 201/3/1 202/4/1
f 23/1/1 22/2/1 150/3/1 151/4/1
f 126/1/1 125/2/1 253/3/1 254/4/1
f 75/1/1 74/2/1 202/3/1 203/4/1
f 24/1/1 23/2/1 151/3/1 152/4/1
f 127/1/1 126/2/1 254/3/1 255/4/1
f 76/1/1 75/2/1 203/3/1 204/4/1
f 25/1/1 24/2/1 152/3/1 153/4/1
f 128/1/1 127/2/1 255/3/1 256/4/1
f 77/1/1 76/2/1 204/3/1 205/4/1
f 26/1/1 25/2/1 153/3/1 154/4/1
f 1/1/1 128/2/1 256/3/1 129/4/1
f 78/1/1 77/2/1 205/3/1 206/4/1
f 27/1/1 26/2/1 154/3/1 155/4/1
f 79/1/1 78/2/1 206/3/1 207/4/1
f 28/1/1 27/2/1 155/3/1 156/4/1
f 80/1/1 79/2/1 207/3/1 208/4/1
f 29/1/1 28/2/1 156/3/1 157/4/1
f 81/1/1 80/2/1 208/3/1 209/4/1
f 30/1/1 29/2/1 157/3/1 158/4/1
f 82/1/1 81/2/1 209/3/1 210/4/1
f 31/1/1 30/2/1 158/3/1 159/4/1
f 83/1/1 82/2/1 210/3/1 211/4/1
f 32/1/1 31/2/1 159/3/1 160/4/1
f 84/1/1 83/2/1 211/3/1 212/4/1
f 33/1/1 32/2/1 160/3/1 161/4/1
f 85/1/1 84/2/1 212/3/1 213/4/1
f 34/1/1 33/2/1 161/3/1 162/4/1
f 86/1/1 85/2/1 213/3/1 214/4/1
f 35/1/1 34/2/1 162/3/1 163/4/1
f 87/1/1 86/2/1 214/3/1 215/4/1
f 36/1/1 35/2/1 163/3/1 164/4/1
f 88/1/1 87/2/1 215/3/1 216/4/1
f 37/1/1 36/2/1 164/3/1 165/4/1
f 89/1/1 88/2/1 216/3/1 217/4/1
f 38/1/1 37/2/1 165/3/1 166/4/1
f 90/1/1 89/2/1 217/3/1 218/4/1
f 39/1/1 38/2/1 166/3/1 167/4/1
f 91/1/1 90/2/1 218/3/1 219/4/1
f 40/1/1 39/2/1 167/3/1 168/4/1
f 92/1/1 91/2/1 219/3/1 220/4/1
f 41/1/1 40/2/1 168/3/1 169/4/1
f 93/1/1 92/2/1 220/3/1 221/4/1
f 42/1/1 41/2/1 169/3/1 170/4/1
f 94/1/1 93/2/1 221/3/1 222/4/1
f 43/1/1 42/2/1 170/3/1 171/4/1
f 95/1/1 94/2/1 222/3/1 223/4/1
f 44/1/1 43/2/1 171/3/1 172/4/1
f 96/1/1 95/2/1 223/3/1 224/4/1
f 45/1/1 44/2/1 172/3/1 173/4/1
f 97/1/1 96/2/1 224/3/1 225/4/1
f 46/1/1 45/2/1 173/3/1 174/4/1
f 98/1/1 97/2/1 225/3/1 226/4/1
f 47/1/1 46/2/1 174/3/1 175/4/1
f 99/1/1 98/2/1 226/3/1 227/4/1
f 48/1/1 47/2/1 175/3/1 176/4/1
f 100/1/1 99/2/1 227/3/1 228/4/1
f 49/1/1 48/2/1 176/3/1 177/4/1
f 101/1/1 100/2/1 228/3/1 229/4/1
f 50/1/1 49/2/1 177/3/1 178/4/1
f 102/1/1 101/2/1 229/3/1 230/4/1
f 51/1/1 50/2/1 178/3/1 179/4/1
f 103/1/1 102/2/1 230/3/1 231/4/1
f 52/1/1 51/2/1 179/3/1 180/4/1
f 104/1/1 103/2/1 231/3/1 232/4/1
f 53/1/1 52/2/1 180/3/1 181/4/1
f 2/1/1 1/2/1 129/3/1 130/4/1
f 105/1/1 104/2/1 232/3/1 233/4/1
f 54/1/1 53/2/1 181/3/1 182/4/1
f 3/1/1 2/2/1 130/3/1 131/4/1
f 106/1/1 105/2/1 233/3/1 234/4/1
f 55/1/1 54/2/1 182/3/1 183/4/1
f 4/1/1 3/2/1 131/3/1 132/4/1
f 107/1/1 106/2/1 234/3/1 235/4/1
f 56/1/1 55/2/1 183/3/1 184/4/1
f 5/1/1 4/2/1 132/3/1 133/4/1
f 108/1/1 107/2/1 235/3/1 236/4/1
f 57/1/1 56/2/1 184/3/1 185/4/1
f 6/1/1 5/2/1 133/3/1 134/4/1
f 109/1/1 108/2/1 236/3/1 237/4/1
f 58/1/1 57/2/1 185/3/1 186/4/1
f 7/1/1 6/2/1 134/3/1 135/4/1
f 110/1/1 109/2/1 237/3/1 238/4/1
f 59/1/1 58/2/1 186/3/1 187/4/1
f 8/1/1 7/2/1 135/3/1 136/4/1
f 111/1/1 110/2/1 238/3/1 239/4/1
f 60/1/1 59/2/1 187/3/1 188/4/1
f 9/1/1 8/2/1 136/3/1 137/4/1
f 112/1/1 111/2/1 239/3/1 240/4/1
f 61/1/1 60/2/1 188/3/1 189/4/1
f 10/1/1 9/2/1 137/3/1 138/4/1
f 113/1/1 112/2/1 240/3/1 241/4/1
f 62/1/1 61/2/1 189/3/1 190/4/1
f 11/1/1 10/2/1 138/3/1 139/4/1
f 114/1/1 113/2/1 241/3/1 242/4/1
f 63/1/1 62/2/1 190/3/1 191/4/1
f 12/1/1 11/2/1 139/3/1 140/4/1
f 115/1/1 114/2/1 242/3/1 243/4/1
f 64/1/1 63/2/1 191/3/1 192/4/1
f 13/1/1 12/2/1 140/3/1 141/4/1
f 116/1/1 115/2/1 243/3/1 244/4/1
f 65/1/1 64/2/1 192/3/1 193/4/1
f 14/1/1 13/2/1 141/3/1 142/4/1
f 117/1/1 116/2/1 244/3/1 245/4/1
f 66/1/1 65/2/1 193/3/1 194/4/1
f 15/1/1 14/2/1 142/3/1 143/4/1
f 118/1/1 117/2/1 245/3/1 246/4/1
f 67/1/1 66/2/1 194/3/1 195/4/1
f 16/1/1 15/2/1 143/3/1 144/4/1
f 119/1/1 118/2/1 246/3/1 247/4/1
f 68/1/1 67/2/1 195/3/1 196/4/1
f 17/1/1 16/2/1 144/3/1 145/4/1
f 120/1/1 119/2/1 247/3/1 248/4/1
f 69/1/1 68/2/1 196/3/1 197/4/1
f 18/1/1 17/2/1 145/3/1 146/4/1
f 121/1/1 120/2/1 248/3/1 249/4/1
f 70/1/1 69/2/1 197/3/1 198/4/1
f 19/1/1 18/2/1 146/3/1 147/4/1
f 122/1/1 121/2/1 249/3/1 250/4/1
